<?xml version="1.0" encoding="UTF-8"?>
<svg width="31px" height="31px" viewBox="0 0 31 31" version="1.1" xmlns="http://www.w3.org/2000/svg" xmlns:xlink="http://www.w3.org/1999/xlink">
    <!-- Generator: Sketch 49.3 (51167) - http://www.bohemiancoding.com/sketch -->
    <title>GlutenFree1@2x</title>
    <desc>Created with Sketch.</desc>
    <defs></defs>
    <g id="Page-1" stroke="none" stroke-width="1" fill="none" fill-rule="evenodd">
        <g id="Artboard" transform="translate(-640.000000, -10.000000)">
            <g id="GlutenFree1" transform="translate(640.000000, 10.000000)">
                <circle id="Gluten-Free" fill="#0D663A" cx="15.5" cy="15.5" r="15.5"></circle>
                <path d="M20.9247671,20.1912184 C20.6802497,20.2835917 20.4710546,20.3596627 20.2971755,20.4194336 C20.1232964,20.4792045 19.956212,20.5335409 19.7959172,20.5824444 C19.6356224,20.6313479 19.4033344,20.6938348 19.099046,20.7699069 C18.5828425,20.8894487 18.0680051,20.9804622 17.5545185,21.04295 C17.0410318,21.1054378 16.4990263,21.1366812 15.9284856,21.1366812 C14.7819704,21.1366812 13.7224107,20.9274861 12.7497746,20.5090895 C11.7771386,20.090693 10.9987697,19.4413731 10.4146447,18.5611103 C9.83051967,17.6808475 9.53846154,16.5995532 9.53846154,15.317195 C9.53846154,14.4912694 9.68924504,13.6802987 9.99081656,12.8842586 C10.2923881,12.0882184 10.752889,11.4511242 11.3723332,10.9729567 C11.883103,10.5762951 12.4006572,10.2733697 12.9250113,10.0641714 C13.4493654,9.85497316 13.9614859,9.71505694 14.4613882,9.64441857 C14.9612906,9.5737802 15.512805,9.53846154 16.115948,9.53846154 C17.110319,9.53846154 17.9307985,9.61317408 18.5774114,9.76260141 C19.2240242,9.91202874 19.9331141,10.1089982 20.7047025,10.3535156 L20.7047025,13.026893 C20.1939327,12.7280384 19.6532856,12.4780909 19.0827449,12.2770433 C18.5122042,12.0759956 17.8003974,11.9754733 16.9473032,11.9754733 C15.9637997,11.9754733 15.1772803,12.1615754 14.5877216,12.5337853 C13.9981629,12.9059952 13.5879231,13.3501952 13.3569899,13.8663987 C13.1260568,14.3826022 13.0105919,14.8824971 13.0105919,15.3660983 C13.0105919,15.936639 13.1437161,16.4623436 13.4099684,16.9432279 C13.6762208,17.4241122 14.0783101,17.8099006 14.6162485,18.1006047 C15.1541869,18.3913088 15.8035068,18.5366587 16.5642278,18.5366587 C16.9989255,18.5366587 17.4607848,18.4796054 17.9498197,18.3654973 L17.9498197,17.0369591 L16.417518,17.0369591 L16.417518,14.7629582 L20.9247671,14.7629582 L20.9247671,20.1912184 Z" id="G" fill="#FFFFFF"></path>
            </g>
        </g>
    </g>
</svg>