<?xml version="1.0" encoding="UTF-8"?>
<svg width="31px" height="31px" viewBox="0 0 31 31" version="1.1" xmlns="http://www.w3.org/2000/svg" xmlns:xlink="http://www.w3.org/1999/xlink">
    <!-- Generator: Sketch 49.3 (51167) - http://www.bohemiancoding.com/sketch -->
    <title>Paleo1@2x</title>
    <desc>Created with Sketch.</desc>
    <defs></defs>
    <g id="Page-1" stroke="none" stroke-width="1" fill="none" fill-rule="evenodd">
        <g id="Artboard" transform="translate(-706.000000, -10.000000)">
            <g id="Paleo1" transform="translate(706.000000, 10.000000)">
                <circle id="Gluten-Free" fill="#0D663A" cx="15.5" cy="15.5" r="15.5"></circle>
                <path d="M22.2998798,13.6882512 C22.2998798,14.1066477 22.2278841,14.5155291 22.0838905,14.9149076 C21.9398969,15.3142861 21.7076088,15.6864904 21.3870192,16.0315317 C21.0664297,16.376573 20.6330969,16.6564054 20.087008,16.8710374 C19.540919,17.0856694 18.8983911,17.1929838 18.159405,17.1929838 L15.9261569,17.1929838 L15.9261569,21.431265 L12.5192308,21.431265 L12.5192308,10.1346154 L18.159405,10.1346154 C18.8983911,10.1346154 19.540919,10.2432882 20.087008,10.460637 C20.6330969,10.6779859 21.0664297,10.9605351 21.3870192,11.3082933 C21.7076088,11.6560514 21.9398969,12.0336894 22.0838905,12.4412184 C22.2278841,12.8487475 22.2998798,13.264421 22.2998798,13.6882512 Z M18.8277494,13.7045523 C18.8277494,13.1666139 18.6688154,12.7984848 18.3509428,12.600154 C18.0330701,12.4018232 17.4638963,12.3026593 16.6434044,12.3026593 L15.9261569,12.3026593 L15.9261569,15.0249399 L16.6597055,15.0249399 C17.2248125,15.0249399 17.6595037,14.9896212 17.9637921,14.9189829 C18.2680804,14.8483445 18.4881429,14.7179371 18.6239859,14.5277569 C18.7598289,14.3375767 18.8277494,14.0631779 18.8277494,13.7045523 Z" id="P" fill="#FFFFFF"></path>
            </g>
        </g>
    </g>
</svg>