<?xml version="1.0" encoding="UTF-8"?>
<svg width="31px" height="31px" viewBox="0 0 31 31" version="1.1" xmlns="http://www.w3.org/2000/svg" xmlns:xlink="http://www.w3.org/1999/xlink">
    <!-- Generator: Sketch 49.3 (51167) - http://www.bohemiancoding.com/sketch -->
    <title>Vegan1@2x</title>
    <desc>Created with Sketch.</desc>
    <defs></defs>
    <g id="Page-1" stroke="none" stroke-width="1" fill="none" fill-rule="evenodd">
        <g id="Artboard" transform="translate(-838.000000, -10.000000)">
            <g id="Vegan1" transform="translate(838.000000, 10.000000)">
                <circle id="Gluten-Free" fill="#0D663A" cx="15.5" cy="15.5" r="15.5"></circle>
                <path d="M15.1908616,10.2728835 L10.6425687,20.4901686 L8.63404259,20.4901686 L4.17307692,10.2728835 L7.33868878,10.2728835 L9.64558293,16.0946984 L12.0179725,10.2728835 L15.1908616,10.2728835 Z M26.5362554,19.6460055 C26.3179362,19.7284816 26.1311549,19.7964021 25.9759057,19.849769 C25.8206565,19.9031359 25.671474,19.9516505 25.5283537,19.9953144 C25.3852334,20.0389782 25.1778333,20.09477 24.9061472,20.1626916 C24.4452512,20.2694254 23.985575,20.3506874 23.5271048,20.4064801 C23.0686346,20.4622727 22.5847011,20.4901686 22.0752897,20.4901686 C21.0516155,20.4901686 20.10558,20.3033873 19.237155,19.929819 C18.3687299,19.5562506 17.6737577,18.9765007 17.1522175,18.1905518 C16.6306773,17.4046028 16.3699111,16.4391615 16.3699111,15.2941988 C16.3699111,14.5567653 16.5045392,13.8326843 16.7737995,13.1219342 C17.0430598,12.411184 17.4542214,11.8423499 18.0072966,11.4154147 C18.463341,11.0612525 18.9254429,10.7907834 19.3936162,10.6039992 C19.8617895,10.417215 20.31904,10.2922899 20.7653814,10.2292199 C21.2117227,10.1661499 21.7041463,10.1346154 22.2426669,10.1346154 C23.1304981,10.1346154 23.8630692,10.201323 24.440402,10.3347403 C25.0177349,10.4681575 25.6508509,10.6440231 26.3397691,10.8623422 L26.3397691,13.2492864 C25.8837247,12.9824518 25.401004,12.7592845 24.8915927,12.5797776 C24.3821813,12.4002708 23.7466396,12.3105187 22.9849483,12.3105187 C22.1068202,12.3105187 21.4045708,12.4766813 20.878179,12.8090116 C20.3517873,13.1413419 19.9855018,13.537949 19.7793115,13.998845 C19.5731212,14.459741 19.4700276,14.9060757 19.4700276,15.3378625 C19.4700276,15.8472738 19.5888884,16.3166529 19.8266137,16.7460139 C20.064339,17.1753749 20.4233473,17.5198289 20.9036495,17.7793861 C21.3839516,18.0389433 21.9637015,18.16872 22.6429167,18.16872 C23.0310396,18.16872 23.443414,18.1177796 23.8800523,18.0158973 L23.8800523,16.8297025 L22.5119258,16.8297025 L22.5119258,14.7993446 L26.5362554,14.7993446 L26.5362554,19.6460055 Z" id="VG" fill="#FFFFFF"></path>
            </g>
        </g>
    </g>
</svg>