<svg xmlns="http://www.w3.org/2000/svg" viewBox="0 0 231.79 261"><defs><style>.cls-1{fill:#afce4a;}.cls-2{fill:#231f20;}</style></defs><title>Icon</title><g id="Layer_2" data-name="Layer 2"><g id="Layer_1-2" data-name="Layer 1"><path class="cls-1" d="M166.59,59.43c-9.41-6.16-20.32-8.82-32.62-8a40.05,40.05,0,0,0,2.87-3.87c11.93-18.52,5.67-43.21,5.39-44.26L141.37,0,138,.58c-1.06.18-26.14,4.68-38.07,23.2a42.46,42.46,0,0,0-4.77,10.35c-6.75-11.94-15.31-17.19-21.24-18.3L71,13.8a2.35,2.35,0,0,0-3.26.56L66,16.86a2.35,2.35,0,0,0,.56,3.26l4.16,2.94a2.31,2.31,0,0,0,2.31.18A61,61,0,0,1,86.23,39.32a56.63,56.63,0,0,1,6.13,18.84c-24-8.67-44.1-7.69-59.86,2.95C3.17,80.92,0,126,0,144.52,0,177,29.74,226.31,56,254.88c5,5.43,22.46,6.59,34.71,5.74a42.94,42.94,0,0,1,9.26.3s20.13.21,25.27-.06c5.59-.29,10.12-1.2,15.34-4.89,29.94-21.11,64.71-76.73,59.32-111.45C193.65,104.58,187.42,73.06,166.59,59.43Z"/><path class="cls-2" d="M107.89,104.58l88.76,104.26V104.58h28.23V254H200.07L110.78,148V254H82.54V104.58Z"/><path class="cls-2" d="M231.79,260.88H196.85l-79.16-94v94H75.63V97.67h35.45l78.65,92.39V97.67h42.06Zm-28.51-13.82H218V111.49H203.56V227.63L104.7,111.49H89.46V247.06h14.41v-118Z"/></g></g></svg>