<svg xmlns="http://www.w3.org/2000/svg" viewBox="0 0 584.44 216.27"><defs><style>.cls-1{fill:#afce4a;}.cls-2{fill:#231f20;}.cls-3{fill:#f79520;}</style></defs><title>NomslyTagline</title><g id="Layer_2" data-name="Layer 2"><g id="Layer_1-2" data-name="Layer 1"><path class="cls-1" d="M113.09,40.34A35,35,0,0,0,91,34.93a27.19,27.19,0,0,0,1.95-2.62C101,19.74,96.75,3,96.56,2.26L96,0,93.66.4c-.72.12-17.75,3.18-25.85,15.75a28.83,28.83,0,0,0-3.24,7C60,15.06,54.19,11.49,50.16,10.75l-2-1.38A1.59,1.59,0,0,0,46,9.75l-1.2,1.7a1.59,1.59,0,0,0,.38,2.22l2.82,2a1.57,1.57,0,0,0,1.57.12,41.37,41.37,0,0,1,9,10.91A38.44,38.44,0,0,1,62.7,39.48c-16.27-5.89-29.94-5.22-40.63,2C2.15,54.93,0,85.56,0,98.11c0,22,20.19,55.52,38,74.91,3.38,3.68,15.25,4.47,23.56,3.9a29.15,29.15,0,0,1,6.28.21s13.67.14,17.15,0a17.93,17.93,0,0,0,10.41-3.32c20.32-14.33,43.93-52.09,40.27-75.66C131.46,71,127.23,49.6,113.09,40.34Z"/><path class="cls-2" d="M73.24,71l60.25,70.78V71h19.17V172.41H135.82L75.2,100.47v71.94H56V71Z"/><path class="cls-2" d="M157.35,177.1H133.63L79.89,113.32V177.1H51.34V66.3H75.41L128.8,129V66.3h28.55ZM138,167.72h10v-92h-9.78v78.84L71.07,75.69H60.73v92h9.78V87.62Z"/><path class="cls-2" d="M210.14,103.3a41.56,41.56,0,0,1,19.23,4.43,32.17,32.17,0,0,1,13.36,12.41,34.84,34.84,0,0,1,4.72,18.08,36.42,36.42,0,0,1-4.54,18.44,31.81,31.81,0,0,1-13.36,12.49,41.55,41.55,0,0,1-19.42,4.57,41.07,41.07,0,0,1-19.39-4.57,32,32,0,0,1-13.25-12.49A36.42,36.42,0,0,1,173,138.22,34.53,34.53,0,0,1,177.76,120a32.59,32.59,0,0,1,13.36-12.34A41.07,41.07,0,0,1,210.14,103.3ZM191.7,138.22q0,10.16,5,16.22A16.33,16.33,0,0,0,210,160.5q8.71,0,13.72-5.81t5-16.62q0-10.31-5-15.93T210,116.51a16.56,16.56,0,0,0-13.21,6Q191.7,128.42,191.7,138.22Z"/><path class="cls-2" d="M210.14,178.41a45.9,45.9,0,0,1-21.57-5.11A36.73,36.73,0,0,1,173.44,159a41.2,41.2,0,0,1-5.16-20.77,39.3,39.3,0,0,1,5.46-20.6A37.35,37.35,0,0,1,189,103.52a45.89,45.89,0,0,1,21.16-4.91,46.39,46.39,0,0,1,21.37,4.94,36.92,36.92,0,0,1,15.26,14.2,39.61,39.61,0,0,1,5.37,20.46A41.2,41.2,0,0,1,247,159a36.58,36.58,0,0,1-15.27,14.32A46.4,46.4,0,0,1,210.14,178.41Zm0-70.41a36.6,36.6,0,0,0-16.88,3.88,27.73,27.73,0,0,0-11.48,10.59,29.68,29.68,0,0,0-4.11,15.76,32,32,0,0,0,3.92,16.11A27.11,27.11,0,0,0,192.93,165a36.62,36.62,0,0,0,17.2,4,37.12,37.12,0,0,0,17.26-4,27,27,0,0,0,11.44-10.65,32,32,0,0,0,3.92-16.11,30,30,0,0,0-4.07-15.69,27.33,27.33,0,0,0-11.46-10.63A37.11,37.11,0,0,0,210.14,108Zm-.15,57.2A20.89,20.89,0,0,1,193,157.41c-4-4.88-6-11.34-6-19.2,0-7.65,2.09-14,6.2-18.8a21.14,21.14,0,0,1,16.78-7.6c7.12,0,12.9,2.42,17.18,7.19s6.25,11,6.25,19.07c0,8.34-2.07,15-6.15,19.69C223,162.69,217.2,165.19,210,165.19Zm0-44a11.83,11.83,0,0,0-9.65,4.31c-2.66,3.12-4,7.28-4,12.7,0,5.63,1.31,10.09,3.91,13.25a11.62,11.62,0,0,0,9.69,4.35c4.42,0,7.74-1.37,10.16-4.18,2.57-3,3.88-7.54,3.88-13.56,0-5.64-1.29-10-3.85-12.8S214.39,121.2,210,121.2Z"/><path class="cls-2" d="M305.48,103.3A23.08,23.08,0,0,1,318.73,107a22.43,22.43,0,0,1,8.09,9.84,42.08,42.08,0,0,1,11.44-10.27,25,25,0,0,1,12.52-3.23q10.74,0,17.35,7T374.74,129v43.41H356.88V132q0-7-3-11.11t-8.75-4.06q-8.21,0-15.75,10.52v45.08H311.58V131.68q0-7-3.19-10.93a10.44,10.44,0,0,0-8.56-4,13.75,13.75,0,0,0-8,2.5,35.72,35.72,0,0,0-7.77,8v45.08H266.21v-67.8h17.86v9.51a35.78,35.78,0,0,1,9.87-8.17A24.35,24.35,0,0,1,305.48,103.3Z"/><path class="cls-2" d="M379.43,177.1H352.19V132c0-3.64-.7-6.44-2.09-8.31-.75-1-2-2.16-5-2.16-3.57,0-7.29,2.48-11.06,7.38V177.1H306.89V131.68c0-3.53-.72-6.21-2.15-8a5.78,5.78,0,0,0-4.91-2.21,9.08,9.08,0,0,0-5.32,1.67,28.45,28.45,0,0,0-5.74,5.76V177.1H261.52V99.91h27.24v3.69a31.32,31.32,0,0,1,3-1.8,29.09,29.09,0,0,1,13.74-3.19,27.76,27.76,0,0,1,15.88,4.47,26.86,26.86,0,0,1,6.25,5.86,40.07,40.07,0,0,1,8.34-6.49,29.69,29.69,0,0,1,14.83-3.84c8.47,0,15.46,2.85,20.76,8.48S379.43,120,379.43,129Zm-17.86-9.38H370V129c0-6.61-1.74-11.67-5.33-15.47S356.65,108,350.78,108a20.15,20.15,0,0,0-10.21,2.62,31.39,31.39,0,0,0-6.75,5.38,19.15,19.15,0,0,1,11.29-3.88,14.9,14.9,0,0,1,12.52,6c2.61,3.53,3.94,8.2,3.94,13.9Zm-45.3,0h8.4v-41.9l.6-.83-2.75-6.31a17.68,17.68,0,0,0-6.42-7.83A18.36,18.36,0,0,0,305.48,108a19.84,19.84,0,0,0-9.35,2.11,28.55,28.55,0,0,0-6.76,5.21,18.4,18.4,0,0,1,10.45-3.2,15.17,15.17,0,0,1,12.22,5.7c2.81,3.48,4.23,8.15,4.23,13.87Zm-45.37,0h8.48V109.3H270.9Z"/><path class="cls-2" d="M421.45,103.3A42.17,42.17,0,0,1,432,104.57a53.16,53.16,0,0,1,10.45,4v14.3a50.3,50.3,0,0,0-10.89-5.26,32.37,32.37,0,0,0-10.38-2,10.78,10.78,0,0,0-6,1.45,4.68,4.68,0,0,0-2.18,4.14,4.17,4.17,0,0,0,1.81,3q1.81,1.53,9.95,5.59,11.61,5.88,16.29,10.85a16.79,16.79,0,0,1,4.68,11.94q0,9.8-6.82,15.43t-18.44,5.62a54.74,54.74,0,0,1-13.54-1.6,45.28,45.28,0,0,1-10.42-3.85V153.39q13.07,7.26,22,7.26a14.74,14.74,0,0,0,7.4-1.63,4.88,4.88,0,0,0,2.83-4.32,4.61,4.61,0,0,0-1-2.9,13.44,13.44,0,0,0-3-2.69q-2-1.38-12.71-6.6-8.21-3.92-12.12-8.53A16.33,16.33,0,0,1,395.89,123a17.17,17.17,0,0,1,7-14.37Q410,103.3,421.45,103.3Z"/><path class="cls-2" d="M420.43,178.41a59.67,59.67,0,0,1-14.7-1.74,50.13,50.13,0,0,1-11.51-4.27l-2.45-1.33V145.42l7,3.87c8,4.43,14.6,6.67,19.72,6.67a10.47,10.47,0,0,0,5.06-1,1.88,1.88,0,0,0,.55-.41c-.3-.14-.84-.72-2.08-1.56-.52-.35-2.77-1.68-12.13-6.27-6.08-2.9-10.55-6.08-13.63-9.7a21,21,0,0,1-5-14,21.72,21.72,0,0,1,8.88-18.1c5.51-4.2,12.7-6.33,21.36-6.33A47,47,0,0,1,433.14,100a58.07,58.07,0,0,1,11.38,4.38l2.59,1.3v25.79l-7.23-4.65a45.88,45.88,0,0,0-9.88-4.77,27.94,27.94,0,0,0-8.86-1.74,7.43,7.43,0,0,0-3.16.51,75.53,75.53,0,0,0,8.82,4.82c8.33,4.22,14.08,8.09,17.61,11.84a21.41,21.41,0,0,1,6,15.16c0,8-2.87,14.38-8.53,19C436.46,176.15,429.25,178.41,420.43,178.41Zm-19.27-13.08a48.3,48.3,0,0,0,6.88,2.25A50.31,50.31,0,0,0,420.43,169c6.59,0,11.79-1.53,15.45-4.55,3.44-2.84,5.12-6.7,5.12-11.81a12.15,12.15,0,0,0-3.4-8.72c-2.74-2.9-7.78-6.23-15-9.89-7.62-3.8-9.8-5.3-10.85-6.18-2.88-2.42-3.49-4.94-3.49-6.64a9.38,9.38,0,0,1,4.26-8c4.51-3,11.93-2.95,20.54,0q2.38.82,4.67,1.84v-3.47a45,45,0,0,0-6.93-2.46,37.67,37.67,0,0,0-9.35-1.12c-6.56,0-11.83,1.48-15.67,4.41A12.44,12.44,0,0,0,400.58,123a11.68,11.68,0,0,0,2.8,7.89c2.17,2.55,5.73,5,10.57,7.33,9.86,4.83,12.32,6.28,13.31,7a17.86,17.86,0,0,1,4.12,3.69,9.35,9.35,0,0,1,2,5.79,9.53,9.53,0,0,1-5.18,8.38,19.35,19.35,0,0,1-9.75,2.26c-5.09,0-10.79-1.43-17.31-4.34Z"/><path class="cls-2" d="M485.35,71V172.41H467.5V71Z"/><path class="cls-2" d="M490,177.1H462.81V66.3H490Zm-17.86-9.38h8.47v-92h-8.47Z"/><path class="cls-2" d="M526.21,103.3l16,45.29,16.26-45.29h19.17l-40.21,108H518.3l15-39.26L506.9,103.3Z"/><path class="cls-2" d="M540.73,216H511.49l16.74-43.95L500.08,98.61h29.45l12.76,36,12.93-36h29.22Zm-15.62-9.38h9.1L570.93,108h-9.11l-19.59,54.57L522.9,108h-9.18L538.28,172Z"/><path class="cls-3" d="M148.59,207.51h-8.7V216h-6.33V195h15v4.21h-8.7v4.06h8.7Z"/><path class="cls-3" d="M175,205.49a11,11,0,0,1-1.36,5.4,9.79,9.79,0,0,1-4,3.92,13.52,13.52,0,0,1-6.52,1.45,13.27,13.27,0,0,1-6.58-1.51,9.84,9.84,0,0,1-4-4,11.35,11.35,0,0,1,0-10.57,9.75,9.75,0,0,1,4-4,13.36,13.36,0,0,1,6.59-1.51,14.57,14.57,0,0,1,5.18.86,10.37,10.37,0,0,1,3.75,2.34,9.83,9.83,0,0,1,2.22,3.44A11.35,11.35,0,0,1,175,205.49Zm-6.45,0a6.38,6.38,0,0,0-.35-2.16,4.61,4.61,0,0,0-1.05-1.7,4.89,4.89,0,0,0-1.72-1.12,6.36,6.36,0,0,0-2.35-.4,5.39,5.39,0,1,0,0,10.76,6,6,0,0,0,3-.69,4.59,4.59,0,0,0,1.86-1.91A6,6,0,0,0,168.54,205.49Z"/><path class="cls-3" d="M201.06,205.49a11,11,0,0,1-1.36,5.4,9.79,9.79,0,0,1-4,3.92,13.52,13.52,0,0,1-6.52,1.45,13.27,13.27,0,0,1-6.58-1.51,9.84,9.84,0,0,1-4-4,11.35,11.35,0,0,1,0-10.57,9.75,9.75,0,0,1,4-4,13.36,13.36,0,0,1,6.59-1.51,14.57,14.57,0,0,1,5.18.86,10.37,10.37,0,0,1,3.75,2.34,9.83,9.83,0,0,1,2.22,3.44A11.35,11.35,0,0,1,201.06,205.49Zm-6.45,0a6.38,6.38,0,0,0-.35-2.16,4.61,4.61,0,0,0-1.05-1.7,4.89,4.89,0,0,0-1.72-1.12,6.36,6.36,0,0,0-2.35-.4,5.39,5.39,0,1,0,0,10.76,6,6,0,0,0,3-.69,4.59,4.59,0,0,0,1.86-1.91A6,6,0,0,0,194.61,205.49Z"/><path class="cls-3" d="M226.25,205.89a10,10,0,0,1-1.17,5.18,11.08,11.08,0,0,1-2.76,3.16A10,10,0,0,1,216,216H204.68V195h8.72a23.84,23.84,0,0,1,3.37.2,14.93,14.93,0,0,1,2.52.58,10,10,0,0,1,1.91.83,9.82,9.82,0,0,1,1.41,1,9.64,9.64,0,0,1,1.88,2.07,10.17,10.17,0,0,1,1.29,2.77A11.74,11.74,0,0,1,226.25,205.89Zm-6.43-.27a7,7,0,0,0-1-4,4.78,4.78,0,0,0-2.35-1.92,8.33,8.33,0,0,0-2.79-.48H211v12.43h2.69a7.71,7.71,0,0,0,4.3-1.18Q219.82,209.29,219.82,205.62Z"/><path class="cls-3" d="M253.77,207.51h-8.7V216h-6.33V195h15v4.21h-8.7v4.06h8.7Z"/><path class="cls-3" d="M280.16,205.49a11,11,0,0,1-1.36,5.4,9.79,9.79,0,0,1-4,3.92,13.52,13.52,0,0,1-6.52,1.45,13.27,13.27,0,0,1-6.58-1.51,9.84,9.84,0,0,1-4-4,11.35,11.35,0,0,1,0-10.57,9.75,9.75,0,0,1,4-4,13.36,13.36,0,0,1,6.59-1.51,14.57,14.57,0,0,1,5.18.86,10.37,10.37,0,0,1,3.75,2.34,9.83,9.83,0,0,1,2.22,3.44A11.35,11.35,0,0,1,280.16,205.49Zm-6.45,0a6.38,6.38,0,0,0-.35-2.16,4.61,4.61,0,0,0-1.05-1.7,4.89,4.89,0,0,0-1.72-1.12,6.36,6.36,0,0,0-2.35-.4,5.39,5.39,0,1,0,0,10.76,6,6,0,0,0,3-.69,4.59,4.59,0,0,0,1.86-1.91A6,6,0,0,0,273.72,205.49Z"/><path class="cls-3" d="M304.1,216h-6.8l-1.65-3.72a15.47,15.47,0,0,0-1.63-3,3.52,3.52,0,0,0-1.42-1.21,5,5,0,0,0-1.78-.27h-.71V216h-6.33V195h10.76a7.82,7.82,0,0,1,4.27,1.06,6.36,6.36,0,0,1,2.4,2.57,6.6,6.6,0,0,1,.73,2.88,5.43,5.43,0,0,1-.61,2.69,4.91,4.91,0,0,1-1.29,1.6,12.8,12.8,0,0,1-1.53,1,6,6,0,0,1,1.67,1.4,17.56,17.56,0,0,1,1.79,3.28Zm-8.6-14.35a2.17,2.17,0,0,0-1-2,6.28,6.28,0,0,0-3.1-.58h-1.33v5.06h1.36a6.84,6.84,0,0,0,3.17-.51A2.07,2.07,0,0,0,295.51,201.65Z"/><path class="cls-3" d="M335.68,200.12H328V216h-6.31V200.12H314V195h21.69Z"/><path class="cls-3" d="M361.22,216h-6.31v-8.19h-9.52V216h-6.33V195h6.33v7.7h9.52V195h6.31Z"/><path class="cls-3" d="M388.63,205.49a11,11,0,0,1-1.36,5.4,9.79,9.79,0,0,1-4,3.92,13.52,13.52,0,0,1-6.52,1.45,13.27,13.27,0,0,1-6.58-1.51,9.84,9.84,0,0,1-4-4,11.35,11.35,0,0,1,0-10.57,9.75,9.75,0,0,1,4-4,13.36,13.36,0,0,1,6.59-1.51,14.57,14.57,0,0,1,5.18.86,10.37,10.37,0,0,1,3.75,2.34,9.83,9.83,0,0,1,2.22,3.44A11.35,11.35,0,0,1,388.63,205.49Zm-6.45,0a6.38,6.38,0,0,0-.35-2.16,4.61,4.61,0,0,0-1.05-1.7,4.89,4.89,0,0,0-1.72-1.12,6.36,6.36,0,0,0-2.35-.4,5.39,5.39,0,1,0,0,10.76,6,6,0,0,0,3-.69,4.59,4.59,0,0,0,1.86-1.91A6,6,0,0,0,382.18,205.49Z"/><path class="cls-3" d="M414.11,206.6a9.7,9.7,0,0,1-1,4.59,8.07,8.07,0,0,1-2.66,3,11.45,11.45,0,0,1-3.57,1.59,15.54,15.54,0,0,1-3.82.48,15.18,15.18,0,0,1-5.18-.91,9.21,9.21,0,0,1-4.22-3.09,9,9,0,0,1-1.7-5.68V195h6.31V205a8.51,8.51,0,0,0,.6,3.43,4.15,4.15,0,0,0,1.67,2,5.29,5.29,0,0,0,5,0,4.1,4.1,0,0,0,1.67-2,8.47,8.47,0,0,0,.6-3.42V195h6.33Z"/><path class="cls-3" d="M438.55,214.52l-1.17.42-.93.3q-.45.14-1.29.35a27.36,27.36,0,0,1-2.87.51,25.07,25.07,0,0,1-3,.17,14.78,14.78,0,0,1-5.9-1.17,9.69,9.69,0,0,1-4.34-3.62,10.65,10.65,0,0,1-1.63-6,12.67,12.67,0,0,1,.84-4.52,7.91,7.91,0,0,1,2.57-3.55,11.94,11.94,0,0,1,2.88-1.69,12.4,12.4,0,0,1,2.85-.78,22.11,22.11,0,0,1,3.07-.2,20.8,20.8,0,0,1,4.57.42q1.8.42,4,1.1v5a17.4,17.4,0,0,0-3-1.39,12.06,12.06,0,0,0-4-.56,8.13,8.13,0,0,0-4.38,1,5.75,5.75,0,0,0-2.29,2.47,6.79,6.79,0,0,0-.64,2.79,6,6,0,0,0,.74,2.93,5.43,5.43,0,0,0,2.24,2.15,7.52,7.52,0,0,0,3.62.81,11.34,11.34,0,0,0,2.57-.32v-2.47h-2.85v-4.22h8.37Z"/><path class="cls-3" d="M465.38,216h-6.31v-8.19h-9.52V216h-6.33V195h6.33v7.7h9.52V195h6.31Z"/><path class="cls-3" d="M490.45,200.12h-7.69V216h-6.31V200.12h-7.69V195h21.69Z"/></g></g></svg>