<?xml version="1.0" encoding="UTF-8"?>
<svg width="31px" height="31px" viewBox="0 0 31 31" version="1.1" xmlns="http://www.w3.org/2000/svg" xmlns:xlink="http://www.w3.org/1999/xlink">
    <!-- Generator: Sketch 49.3 (51167) - http://www.bohemiancoding.com/sketch -->
    <title>Gluten Free@2x</title>
    <desc>Created with Sketch.</desc>
    <defs></defs>
    <g id="Page-1" stroke="none" stroke-width="1" fill="none" fill-rule="evenodd">
        <g id="Artboard" transform="translate(-188.000000, -51.000000)" fill="#0D663A">
            <g id="Group-4" transform="translate(40.000000, 51.000000)">
                <path d="M163.5,31 C154.939586,31 148,24.0604136 148,15.5 C148,6.93958638 154.939586,0 163.5,0 C172.060414,0 179,6.93958638 179,15.5 C179,24.0604136 172.060414,31 163.5,31 Z M163.798077,11.3269231 C163.316568,11.3269231 162.903846,11.7116917 162.903846,12.1605884 L162.903846,26.5894116 C162.903846,27.0383083 163.316568,27.4230769 163.798077,27.4230769 C164.279586,27.4230769 164.692308,27.0383083 164.692308,26.5894116 L164.692308,12.1605884 C164.692308,11.7116917 164.279586,11.3269231 163.798077,11.3269231 Z M163.798077,4.17307692 C162.903846,4.86094675 162.307692,5.94188504 162.307692,7.15384615 C162.307692,8.36580727 162.903846,9.44674556 163.798077,10.1346154 C164.692308,9.44674556 165.288462,8.36580727 165.288462,7.15384615 C165.288462,5.94188504 164.692308,4.86094675 163.798077,4.17307692 Z M169.942178,8.34615385 C168.7319,8.34615385 167.556201,8.84977936 166.760876,9.78988033 C165.930971,10.7635563 165.723495,12.0058326 166.00013,13.1138087 C167.175828,13.1473838 168.386106,12.6437582 169.181432,11.6700823 C170.011336,10.6964063 170.218813,9.45412998 169.942178,8.34615385 Z M170.002837,13.7348604 C168.897601,13.6104766 167.727352,13.9836281 166.914679,14.8543147 C166.069499,15.6939055 165.744429,16.8133598 165.939471,17.8706222 C167.044706,17.9639101 168.214956,17.5907586 169.027629,16.7511679 C169.872809,15.9115772 170.197878,14.7921228 170.002837,13.7348604 Z M170.002837,18.4947938 C168.897601,18.4012969 167.727352,18.7752844 166.914679,19.6167562 C166.069499,20.458228 165.744429,21.5801904 165.939471,22.6398216 C167.044706,22.7333185 168.214956,22.359331 169.027629,21.5178592 C169.872809,20.6763874 170.197878,19.5544249 170.002837,18.4947938 Z M161.434635,9.7909788 C160.637204,8.81762443 159.458394,8.31416527 158.244913,8.34772921 C157.967546,9.45533936 158.210242,10.6972053 159.007673,11.6705597 C159.805103,12.643914 161.018584,13.1473732 162.197394,13.1138093 C162.474761,12.0061991 162.232065,10.7643332 161.434635,9.7909788 Z M160.688725,14.8475254 C159.870475,14.0060536 158.692195,13.6320661 157.579374,13.725563 C157.415724,14.7851942 157.743024,15.9071566 158.561275,16.7486284 C159.379525,17.5901002 160.557805,17.9640877 161.670626,17.8705909 C161.834276,16.8109597 161.506976,15.6889972 160.688725,14.8475254 Z M160.688725,19.6167562 C159.870475,18.7752844 158.692195,18.4012969 157.579374,18.4947938 C157.415724,19.5544249 157.743024,20.6763874 158.561275,21.5178592 C159.379525,22.359331 160.557805,22.7333185 161.670626,22.6398216 C161.834276,21.5801904 161.506976,20.458228 160.688725,19.6167562 Z" id="Gluten-Free"></path>
            </g>
        </g>
    </g>
</svg>