<?xml version="1.0" encoding="UTF-8"?>
<svg width="31px" height="31px" viewBox="0 0 31 31" version="1.1" xmlns="http://www.w3.org/2000/svg" xmlns:xlink="http://www.w3.org/1999/xlink">
    <!-- Generator: Sketch 49.3 (51167) - http://www.bohemiancoding.com/sketch -->
    <title>Paleo@2x</title>
    <desc>Created with Sketch.</desc>
    <defs></defs>
    <g id="Page-1" stroke="none" stroke-width="1" fill="none" fill-rule="evenodd">
        <g id="Artboard" transform="translate(-40.000000, -51.000000)" fill="#0D663A">
            <g id="Group-4" transform="translate(40.000000, 51.000000)">
                <path d="M15.5,31 C6.93958638,31 0,24.0604136 0,15.5 C0,6.93958638 6.93958638,0 15.5,0 C24.0604136,0 31,6.93958638 31,15.5 C31,24.0604136 24.0604136,31 15.5,31 Z M9.62962752,7.00578457 C8.99072977,7.06521261 7.96070012,7.61736976 6.53953858,8.66225601 L7.37830515,9.07070099 C7.54472405,9.15159179 7.65636404,9.31737412 7.67113541,9.50554587 C7.68590677,9.69371762 7.60156308,9.87566182 7.44990301,9.98278313 C7.29824293,10.0899044 7.1023308,10.105912 6.93602803,10.0247706 L6.07612883,9.60601152 C5.93410705,10.474005 5.99079632,11.2572016 6.24619663,11.9556015 C6.50159695,12.6540013 6.91921921,13.1678237 7.49906339,13.4970688 L8.07467771,13.0334423 C8.16502959,12.9584927 8.27745107,12.9170549 8.39368094,12.9158598 C8.61561824,12.9135285 8.81407572,13.0571168 8.88624598,13.2722411 C8.95841623,13.4873654 8.88808159,13.7256844 8.71167766,13.863741 L8.15920848,14.3088017 C8.26467155,14.5570317 8.41779971,14.7454388 8.61859295,14.8740233 C8.91978282,15.0668999 11.8286915,16.7072285 14.2826582,18.2302859 C16.7366249,19.7533433 22.0668729,24.6095562 23.2513725,25.8236094 C23.8802046,26.4681311 24.1533308,25.1643771 23.9141346,24.8231655 C23.6749383,24.4819539 17.3288747,17.9322635 16.0150358,15.4062397 C14.565266,13.4480959 13.8403811,12.3375931 13.8403811,12.0747313 C13.8403811,11.8118694 13.4948782,10.7766608 12.8038726,8.96910536 L12.397823,8.73084599 C12.3616197,8.820873 12.3264132,8.90567298 12.2896437,9.00365832 C12.1710494,9.31969697 12.0672473,9.62251435 12.0672473,9.62251435 C12.0087554,9.80391568 11.8592406,9.93879729 11.6762614,9.97523395 C11.4932822,10.0116706 11.3053693,9.94398098 11.1848634,9.79822349 C11.0643575,9.652466 11.0300482,9.4513676 11.0951436,9.27234495 C11.0951436,9.27234495 11.2027321,8.95871465 11.3281064,8.62460897 C11.3825765,8.47945221 11.4400822,8.33508283 11.4961614,8.2012082 C10.8907032,7.34483107 10.2685253,6.94635652 9.62962752,7.00578457 Z" id="Paleo"></path>
            </g>
        </g>
    </g>
</svg>