<?xml version="1.0" encoding="UTF-8"?>
<svg width="31px" height="31px" viewBox="0 0 31 31" version="1.1" xmlns="http://www.w3.org/2000/svg" xmlns:xlink="http://www.w3.org/1999/xlink">
    <!-- Generator: Sketch 49.3 (51167) - http://www.bohemiancoding.com/sketch -->
    <title>Vegan@2x</title>
    <desc>Created with Sketch.</desc>
    <defs></defs>
    <g id="Page-1" stroke="none" stroke-width="1" fill="none" fill-rule="evenodd">
        <g id="Artboard" transform="translate(-405.000000, -51.000000)">
            <g id="Vegan" transform="translate(405.000000, 51.000000)">
                <circle id="Gluten-Free" fill="#0D663A" cx="15.5" cy="15.5" r="15.5"></circle>
                <path d="M17.7319034,10.0798075 C17.7953434,9.99675657 17.8566011,9.91032955 17.9119358,9.81698161 C18.6605896,8.55923211 18.2674801,6.88150129 18.2503342,6.81060413 L18.1957789,6.5840708 L17.9827017,6.62373945 C17.9161443,6.63623086 16.3427709,6.94159508 15.5942729,8.19951339 C15.4606905,8.42418988 15.3646733,8.66253941 15.2951543,8.90240816 C14.8714938,8.09164841 14.3345143,7.73429293 13.9626034,7.6596821 L13.7824152,7.52177023 C13.7163254,7.4712982 13.624205,7.48834728 13.5777551,7.55991966 L13.46693,7.72990406 C13.4203242,7.80130763 13.4360673,7.90107007 13.5021571,7.95154211 L13.7630871,8.15106699 C13.807043,8.18465874 13.86191,8.18584036 13.9080481,8.16322079 C14.1446621,8.39144215 14.4632647,8.72837249 14.7365086,9.25503716 C14.9576911,9.68109537 15.0621255,10.1383821 15.1210451,10.534731 C13.6173466,9.94577813 12.3549382,10.0122864 11.3663971,10.7349311 C9.5261706,12.0809645 9.32743363,15.1465917 9.32743363,16.4023156 C9.32743363,18.6087367 10.8610596,22.3640921 12.8382977,23.8990158 C13.4981044,24.411501 14.1465325,24.3446551 14.7851407,24.2119762 C15.0487205,24.1572841 15.3729345,24.0224106 15.5980139,24.0202162 C15.8109352,24.0230858 16.0445875,24.0818292 16.2925801,24.1490127 C16.5725265,24.2248052 16.8724245,24.3390846 17.1810513,24.3056617 C17.5302049,24.2678499 17.8156068,24.22413 18.1434059,23.9737954 C20.0211975,22.539647 21.8643856,18.7891869 21.8643856,16.4023156 C21.8643856,13.7087297 21.0844014,11.5475477 19.778037,10.6213268 C19.1874375,10.2025272 18.5031588,10.022077 17.7319034,10.0798075 Z" id="Fill-1" fill="#FFFFFF"></path>
            </g>
        </g>
    </g>
</svg>