<?xml version="1.0" encoding="UTF-8"?>
<svg width="31px" height="31px" viewBox="0 0 31 31" version="1.1" xmlns="http://www.w3.org/2000/svg" xmlns:xlink="http://www.w3.org/1999/xlink">
    <!-- Generator: Sketch 49.3 (51167) - http://www.bohemiancoding.com/sketch -->
    <title>Vegitarian@2x</title>
    <desc>Created with Sketch.</desc>
    <defs></defs>
    <g id="Page-1" stroke="none" stroke-width="1" fill="none" fill-rule="evenodd">
        <g id="Artboard" transform="translate(-339.000000, -51.000000)">
            <g id="Vegitarian" transform="translate(339.000000, 51.000000)">
                <circle id="Gluten-Free" fill="#0D663A" cx="15.5" cy="15.5" r="15.5"></circle>
                <g id="Group" transform="translate(8.504425, 5.212389)" fill="#FFFFFF">
                    <path d="M12.3162571,7.3441477 C12.3698797,7.27394897 12.4216577,7.20089663 12.4684292,7.12199441 C13.101228,6.05888319 12.7689526,4.64078329 12.75446,4.58085755 L12.7083473,4.38938053 L12.528244,4.42291041 C12.4719865,4.43346876 11.1420946,4.69157749 10.5094276,5.75483139 C10.3965172,5.94473892 10.3153587,6.14620356 10.2565979,6.34895232 C9.89849943,5.66365865 9.44461815,5.36160437 9.13026091,5.29853966 L8.97795706,5.18196982 C8.92209475,5.1393084 8.84423007,5.15371911 8.80496835,5.21421558 L8.71129358,5.35789468 C8.67190011,5.41824846 8.68520693,5.50257254 8.74106924,5.54523397 L8.96161997,5.71388213 C8.99877367,5.74227552 9.04514993,5.74327428 9.08414815,5.72415511 C9.28414576,5.91705893 9.55344426,6.20184889 9.78440329,6.64701155 C9.97135758,7.00713673 10.0596306,7.39365777 10.1094323,7.72867121 C8.83843303,7.23085951 7.77138385,7.28707556 6.93582071,7.8978901 C5.38037156,9.03562313 5.21238938,11.6268408 5.21238938,12.6882398 C5.21238938,14.5532146 6.50868484,17.7274241 8.17994287,19.0248164 C8.73764372,19.4579939 9.28572677,19.4014925 9.82550952,19.2893458 C10.0483,19.2431173 10.3223415,19.1291158 10.5125896,19.1272609 C10.6925611,19.1296865 10.8900554,19.1793392 11.0996709,19.236126 C11.3362952,19.3001895 11.5897836,19.3967841 11.85065,19.3685334 C12.1457717,19.336573 12.3870073,19.2996188 12.664079,19.0880238 C14.2512801,17.8758116 15.8092325,14.7057398 15.8092325,12.6882398 C15.8092325,10.4114896 15.1499519,8.58475325 14.045749,7.80186623 C13.5465455,7.4478763 12.9681597,7.29535102 12.3162571,7.3441477 Z" id="Fill-1"></path>
                    <g id="milk-bottle-(1)" fill-rule="nonzero">
                        <path d="M8.37553039,6.45011939 L6.5109326,2.72338006 L6.5109326,1.86490303 L6.61364036,1.86490303 C6.78380658,1.86490303 6.92176365,1.72578127 6.92176365,1.55408586 L6.92176365,0.310817172 C6.92176365,0.139121766 6.78380658,0 6.61364036,0 L2.16516178,0 C1.99499556,0 1.8570385,0.139121766 1.8570385,0.310817172 L1.8570385,1.55408586 C1.8570385,1.72578127 1.99499556,1.86490303 2.16516178,1.86490303 L2.26786955,1.86490303 L2.26786955,2.72338006 L0.403271756,6.45011939 C0.177150347,6.90204756 0,7.65265031 0,8.15890932 L0,18.3382131 C0,18.9666026 0.50680118,19.4778761 1.12978538,19.4778761 L7.64897568,19.4778761 C8.27195988,19.4778761 8.77876106,18.9666026 8.77876106,18.3382131 L8.77876106,8.15890932 C8.77876106,7.65260887 8.6016518,6.90204756 8.37553039,6.45011939 Z M2.47328507,0.621634344 L6.30547599,0.621634344 L6.30547599,1.24326869 L2.47328507,1.24326869 L2.47328507,0.621634344 Z M2.8510853,2.93738804 C2.87281826,2.89395652 2.88411612,2.8460078 2.88411612,2.79735455 L2.88411612,1.86490303 L5.89464495,1.86490303 L5.89464495,2.79735455 C5.89464495,2.8460078 5.9059428,2.89395652 5.92767576,2.93738804 L7.10031082,5.28107385 C6.87801014,5.35376362 6.72218192,5.47100386 6.58730609,5.57270324 C6.40440411,5.71066462 6.27223976,5.81029188 5.97759173,5.81029188 C5.68294371,5.81029188 5.55077936,5.71066462 5.36787738,5.57270324 C5.15440957,5.41174139 4.88872513,5.21136792 4.38915457,5.21136792 C3.8896251,5.21136792 3.62398175,5.41174139 3.41051394,5.57274468 C3.22765304,5.71066462 3.09552977,5.81029188 2.80092283,5.81029188 C2.50631589,5.81029188 2.37419262,5.71066462 2.19133172,5.57274468 C2.05649697,5.4710453 1.90066876,5.35380506 1.67840916,5.28111529 L2.8510853,2.93738804 Z M8.16251449,18.3382131 C8.16251449,18.6238748 7.93216152,18.8562418 7.64897568,18.8562418 L1.12982646,18.8562418 C0.846640622,18.8562418 0.616287654,18.6238748 0.616287654,18.3382131 L0.616287654,8.15890932 C0.616287654,7.74970815 0.770677961,7.09545873 0.953456694,6.73014494 L1.39452491,5.848626 C1.57138767,5.88165551 1.68206556,5.9647473 1.82240544,6.07054946 C2.03583217,6.23155276 2.30151661,6.43192623 2.801005,6.43192623 C3.30049338,6.43192623 3.56617782,6.23155276 3.77960455,6.07054946 C3.96246545,5.93262952 4.09458871,5.83300226 4.38919566,5.83300226 C4.68384368,5.83300226 4.81600803,5.93262952 4.99891001,6.07059091 C5.21237783,6.2315942 5.47806226,6.43192623 5.97759173,6.43192623 C6.47716229,6.43192623 6.74280564,6.23155276 6.95631454,6.07059091 C7.09665442,5.9647473 7.20737339,5.88165551 7.38427724,5.848626 L7.82534545,6.73018639 C8.0080831,7.09541728 8.16251449,7.74970815 8.16251449,8.15890932 L8.16251449,18.3382131 Z" id="Shape"></path>
                        <path d="M1.37168142,16.460177 C1.22017463,16.460177 1.09734513,16.6034354 1.09734513,16.780236 L1.09734513,18.060472 C1.09734513,18.2372726 1.22017463,18.380531 1.37168142,18.380531 C1.5231882,18.380531 1.6460177,18.2372726 1.6460177,18.060472 L1.6460177,16.780236 C1.6460177,16.6034354 1.5231882,16.460177 1.37168142,16.460177 Z" id="Shape"></path>
                        <path d="M1.75722215,6.89132402 C1.61086425,6.81511979 1.43236936,6.87572379 1.35847802,7.02670291 C1.22668467,7.29615387 1.09734513,7.85678177 1.09734513,8.15861749 L1.09734513,15.3308811 C1.09734513,15.500074 1.23024665,15.6371681 1.39417699,15.6371681 C1.55810734,15.6371681 1.69100886,15.500074 1.69100886,15.3308811 L1.69100886,8.15861749 C1.69100886,7.95152657 1.79802664,7.48760373 1.88846141,7.30276968 C1.96231318,7.15174972 1.90354047,6.96752824 1.75722215,6.89132402 Z" id="Shape"></path>
                        <path d="M3.8991579,3.01769912 L5.15393944,3.01769912 C5.33772618,3.01769912 5.48672566,2.89490619 5.48672566,2.74336283 C5.48672566,2.59181947 5.33772618,2.46902655 5.15393944,2.46902655 L3.8991579,2.46902655 C3.71537117,2.46902655 3.56637168,2.59181947 3.56637168,2.74336283 C3.56637168,2.89490619 3.71537117,3.01769912 3.8991579,3.01769912 Z" id="Shape"></path>
                    </g>
                </g>
            </g>
        </g>
    </g>
</svg>