<?xml version="1.0" encoding="UTF-8"?>
<svg width="44px" height="45px" viewBox="0 0 44 45" version="1.1" xmlns="http://www.w3.org/2000/svg" xmlns:xlink="http://www.w3.org/1999/xlink">
    <!-- Generator: Sketch 49.3 (51167) - http://www.bohemiancoding.com/sketch -->
    <title>Combined Shape@2x</title>
    <desc>Created with Sketch.</desc>
    <defs></defs>
    <g id="Page-1" stroke="none" stroke-width="1" fill="none" fill-rule="evenodd">
        <g id="More-Info" transform="translate(-524.000000, -551.000000)" fill="#AFCE54">
            <g id="Group-7" transform="translate(236.000000, 234.000000)">
                <g id="Group" transform="translate(56.000000, 317.000000)">
                    <path d="M254,44.7857143 C241.849736,44.7857143 232,34.7600906 232,22.3928571 C232,10.0256236 241.849736,0 254,0 C266.150264,0 276,10.0256236 276,22.3928571 C276,34.7600906 266.150264,44.7857143 254,44.7857143 Z M263.519737,22.6942272 C263.98271,22.1571798 264.214286,21.5220842 264.214286,20.7888062 C264.214286,20.1238349 263.974042,19.5484461 263.49519,19.0622367 C263.015366,18.5760722 262.447219,18.3331243 261.790617,18.3331243 L258.293016,18.3331243 C258.326629,18.2138003 258.36033,18.1114971 258.393943,18.0262593 C258.427247,17.9410214 258.474039,17.8471389 258.532729,17.7448356 C258.591463,17.6424876 258.633701,17.5657153 258.658866,17.5146533 C258.810345,17.2249433 258.92631,16.9860714 259.006362,16.7986647 C259.086281,16.6108996 259.165846,16.355231 259.246075,16.0312557 C259.326171,15.7074595 259.365976,15.3833498 259.365976,15.0593745 C259.365976,14.8548575 259.363543,14.6884579 259.359563,14.5606684 C259.355627,14.4327893 259.334176,14.2409035 259.296627,13.9851005 C259.258503,13.7294318 259.207907,13.5162701 259.144927,13.3458393 C259.081681,13.1753637 258.980577,12.9833883 258.841924,12.7704058 C258.702961,12.5570201 258.534675,12.3846185 258.336669,12.2523946 C258.138706,12.1202603 257.886256,12.0094467 257.579007,11.9199985 C257.271449,11.8304608 256.924395,11.7857143 256.536918,11.7857143 C256.31808,11.7857143 256.128831,11.8667417 255.968727,12.0287518 C255.800397,12.1992274 255.657056,12.4123443 255.539322,12.6680129 C255.421411,12.9238159 255.339281,13.1454879 255.29293,13.3331186 C255.246624,13.5206597 255.193949,13.7807627 255.135259,14.1131587 C255.059232,14.4713994 255.002665,14.7291284 254.964541,14.8868385 C254.926726,15.0445486 254.852866,15.2512603 254.743536,15.5069738 C254.633984,15.7628663 254.503646,15.9673385 254.352078,16.120883 C254.074329,16.4021723 253.649259,16.9137335 253.076689,17.6553875 C252.66409,18.2009452 252.23902,18.7167168 251.8013,19.2027022 C251.363492,19.6887772 251.043638,19.9402354 250.841651,19.9573009 C250.631349,19.9743216 250.450326,20.0617094 250.298758,20.219509 C250.14719,20.3772191 250.071429,20.5626998 250.071429,20.7757719 L250.071429,28.9730239 C250.071429,29.194696 250.151348,29.3842974 250.311319,29.5420075 C250.471201,29.6998968 250.660628,29.7829846 250.87951,29.7915398 C251.174109,29.8000949 251.839159,29.9874568 252.874658,30.354387 C253.522768,30.5757007 254.029881,30.7443398 254.396085,30.8592743 C254.7622,30.9742087 255.273957,31.0979222 255.930072,31.2302356 C256.586807,31.3623251 257.192812,31.4285714 257.748266,31.4285714 L257.96299,31.4285714 L258.922728,31.4285714 L259.37721,31.4285714 C260.497095,31.4115507 261.325919,31.0789307 261.864875,30.4311592 C262.35297,29.8428258 262.559115,29.0712512 262.483618,28.1163907 C262.811875,27.8009705 263.039337,27.4004469 263.16543,26.9143719 C263.308329,26.3946139 263.308329,25.8958183 263.16543,25.4184776 C263.552598,24.898406 263.733621,24.3144174 263.70819,23.6664667 C263.709252,23.3933743 263.646272,23.0694885 263.519737,22.6942272 Z M248.439628,20.4285714 L244.632032,20.4285714 C244.402717,20.4285714 244.204381,20.5128392 244.036933,20.6813281 C243.869485,20.8497239 243.785714,21.0492367 243.785714,21.2797736 L243.785714,29.7918879 C243.785714,30.0220987 243.869485,30.2217047 244.036979,30.3903334 C244.204567,30.5585428 244.402902,30.6428571 244.632078,30.6428571 L248.439628,30.6428571 C248.668758,30.6428571 248.867001,30.5585428 249.034542,30.3903334 C249.20199,30.2217047 249.285714,30.0221453 249.285714,29.7918879 L249.285714,21.2797736 C249.285714,21.0492367 249.201944,20.8497704 249.034542,20.6813281 C248.867047,20.5127926 248.668804,20.4285714 248.439628,20.4285714 Z M246.919118,28.6943575 C246.75167,28.8583745 246.553381,28.9403597 246.324204,28.9403597 C246.086183,28.9403597 245.885625,28.8583745 245.722669,28.6943575 C245.55962,28.5303405 245.478118,28.3286849 245.478118,28.0892508 C245.478118,27.8587605 245.559573,27.6592011 245.722669,27.4908053 C245.885671,27.3223164 246.086183,27.2379555 246.324204,27.2379555 C246.553381,27.2379555 246.75167,27.3223164 246.919118,27.4908053 C247.086613,27.6591545 247.170383,27.858714 247.170383,28.0892508 C247.170383,28.3286849 247.086798,28.5302939 246.919118,28.6943575 Z" id="Combined-Shape" transform="translate(254.000000, 22.392857) rotate(180.000000) translate(-254.000000, -22.392857) "></path>
                </g>
            </g>
        </g>
    </g>
</svg>