<?xml version="1.0" encoding="UTF-8"?>
<svg width="44px" height="45px" viewBox="0 0 44 45" version="1.1" xmlns="http://www.w3.org/2000/svg" xmlns:xlink="http://www.w3.org/1999/xlink">
    <!-- Generator: Sketch 49.3 (51167) - http://www.bohemiancoding.com/sketch -->
    <title>Like@2x</title>
    <desc>Created with Sketch.</desc>
    <defs></defs>
    <g id="Page-1" stroke="none" stroke-width="1" fill="none" fill-rule="evenodd">
        <g id="More-Info" transform="translate(-292.000000, -551.000000)" fill="#AFCE54">
            <g id="Group-7" transform="translate(236.000000, 234.000000)">
                <g id="Group" transform="translate(56.000000, 317.000000)">
                    <path d="M22,45 C9.8497355,45 0,34.9264069 0,22.5 C0,10.0735931 9.8497355,-1.14130927e-13 22,-1.14130927e-13 C34.1502645,-1.14130927e-13 44,10.0735931 44,22.5 C44,34.9264069 34.1502645,45 22,45 Z M31.3124666,23.1068495 C31.7707638,22.5600376 32,21.9133948 32,21.1667845 C32,20.4897228 31.7621828,19.9038724 31.2881682,19.4088229 C30.8131905,18.913819 30.2507826,18.6664538 29.6008131,18.6664538 L26.1385412,18.6664538 C26.1718146,18.5449603 26.2051755,18.440797 26.2384489,18.3540094 C26.2714158,18.2672218 26.3177359,18.1716324 26.375833,18.067469 C26.4339739,17.9632601 26.4757845,17.885092 26.5006958,17.8331015 C26.650645,17.5381241 26.7654382,17.294909 26.8446814,17.1040949 C26.9237933,16.912916 27.0025549,16.6525988 27.0819733,16.3227331 C27.1612603,15.9930497 27.200663,15.6630471 27.200663,15.3331813 C27.200663,15.1249458 27.198255,14.9555208 27.1943148,14.8254078 C27.1904183,14.6952037 27.1691846,14.499829 27.1320147,14.239375 C27.0942757,13.9790579 27.0441904,13.7620205 26.9818466,13.588491 C26.9192401,13.4149158 26.8191572,13.2194499 26.6819045,13.002595 C26.5443452,12.7853296 26.3777594,12.6097934 26.1817528,12.4751654 C25.98579,12.3406287 25.7358893,12.2278003 25.4317442,12.1367258 C25.1272926,12.0455601 24.7837448,12 24.4001814,12 C24.1835541,12 23.9962161,12.0825006 23.8377297,12.2474563 C23.6711,12.4210315 23.5292065,12.6380233 23.412662,12.8983404 C23.2959425,13.1587944 23.2146415,13.3844968 23.1687593,13.5755389 C23.1229208,13.7664899 23.0707779,14.031322 23.0126808,14.3697616 C22.9374216,14.7345157 22.881426,14.9969307 22.843687,15.1575083 C22.8062544,15.3180858 22.7331405,15.528556 22.6249144,15.7889187 C22.5164694,16.0494639 22.3874474,16.2576538 22.2374107,16.41399 C21.9624674,16.7003936 21.5416903,17.2212559 20.9749042,17.9763945 C20.5664733,18.5318715 20.1456962,19.0570208 19.7123978,19.5518422 C19.2790118,20.0467549 18.9623892,20.3027851 18.7624423,20.3201609 C18.5542647,20.337491 18.37507,20.4264677 18.2250332,20.5871365 C18.0749965,20.747714 18,20.9365671 18,21.1535132 L18,29.4998062 C18,29.7255086 18.0791119,29.9185574 18.237467,30.079135 C18.3957345,30.2398949 18.5832476,30.3244934 18.7999187,30.3332041 C19.0915425,30.3419148 19.7498741,30.5326833 20.7749136,30.9062849 C21.4164772,31.1316225 21.9184677,31.3033278 22.2809726,31.420352 C22.6433899,31.5373761 23.1499773,31.663339 23.7994652,31.7980581 C24.4495661,31.9325492 25.0494504,32 25.5992933,32 L25.811849,32 L26.761892,32 L27.2117833,32 C28.3203565,31.9826698 29.1408084,31.6440022 29.674321,30.984453 C30.1574857,30.3854226 30.361548,29.5998194 30.2868142,28.6275978 C30.6117551,28.3064427 30.8369197,27.8986368 30.9617387,27.4037242 C31.1031944,26.874516 31.1031944,26.3666513 30.9617387,25.8806317 C31.3449957,25.3511043 31.5241904,24.7564977 31.4990165,24.0967661 C31.5000672,23.8187084 31.4377234,23.4889338 31.3124666,23.1068495 Z M16.2308308,21 L12.7693797,21 C12.5609113,21 12.3806064,21.0824999 12.2283807,21.2474541 C12.076155,21.4123171 12,21.6076444 12,21.8333447 L12,30.1668833 C12,30.3922644 12.076155,30.5876829 12.2284228,30.7527739 C12.3807748,30.9174545 12.5610797,31 12.7694218,31 L16.2308308,31 C16.4391308,31 16.6193515,30.9174545 16.7716614,30.7527739 C16.9238871,30.5876829 17,30.39231 17,30.1668833 L17,21.8333447 C17,21.6076444 16.923845,21.4123627 16.7716614,21.2474541 C16.6193936,21.0824543 16.4391729,21 16.2308308,21 Z M14.7030429,28.7109944 C14.5051445,28.903683 14.2707968,29 13.9999453,29 C13.7186405,29 13.4816112,28.903683 13.2890215,28.7109944 C13.0963222,28.5183057 13,28.2813988 13,28.0001095 C13,27.7293274 13.0962675,27.4948832 13.2890215,27.2970503 C13.4816659,27.099108 13.7186405,27 13.9999453,27 C14.2707968,27 14.5051445,27.099108 14.7030429,27.2970503 C14.9009961,27.4948284 15,27.7292727 15,28.0001095 C15,28.2813988 14.901215,28.518251 14.7030429,28.7109944 Z" id="Like"></path>
                </g>
            </g>
        </g>
    </g>
</svg>