<?xml version="1.0" encoding="UTF-8"?>
<svg width="68px" height="68px" viewBox="0 0 68 68" version="1.1" xmlns="http://www.w3.org/2000/svg" xmlns:xlink="http://www.w3.org/1999/xlink">
    <!-- Generator: Sketch 49.3 (51167) - http://www.bohemiancoding.com/sketch -->
    <title>Comment@2x</title>
    <desc>Created with Sketch.</desc>
    <defs></defs>
    <g id="Page-1" stroke="none" stroke-width="1" fill="none" fill-rule="evenodd">
        <g id="Tablet" transform="translate(-34.000000, -2131.000000)">
            <g id="Comment" transform="translate(34.000000, 2131.000000)">
                <circle id="Oval" fill="#F59433" cx="34" cy="34" r="34"></circle>
                <g id="chat" transform="translate(18.000000, 19.000000)" fill="#FFFFFF" fill-rule="nonzero">
                    <path d="M16.5000222,0 C7.4019344,0 4.43463386e-05,6.58722807 4.43463386e-05,14.6842105 C4.43463386e-05,17.5144561 0.90534313,20.2560526 2.62244082,22.6267368 C2.29739126,26.1819474 1.42619243,28.8212982 0.16119413,30.0716316 C-0.00600564553,30.2369649 -0.0478055894,30.4898596 0.0577942687,30.6987018 C0.151294143,30.8852456 0.343793884,31 0.550043607,31 C0.575343573,31 0.600643539,30.9983684 0.626493504,30.9945614 C0.849243205,30.9635614 6.02363625,30.2271754 9.76638122,28.0908947 C11.8915784,28.9387719 14.1553753,29.3684211 16.5000222,29.3684211 C25.5981099,29.3684211 33,22.781193 33,14.6842105 C33,6.58722807 25.5981099,0 16.5000222,0 Z M8.80003252,16.8596491 C7.58673415,16.8596491 6.60003548,15.8839649 6.60003548,14.6842105 C6.60003548,13.4844561 7.58673415,12.5087719 8.80003252,12.5087719 C10.0133309,12.5087719 11.0000296,13.4844561 11.0000296,14.6842105 C11.0000296,15.8839649 10.0133309,16.8596491 8.80003252,16.8596491 Z M16.5000222,16.8596491 C15.2867238,16.8596491 14.3000251,15.8839649 14.3000251,14.6842105 C14.3000251,13.4844561 15.2867238,12.5087719 16.5000222,12.5087719 C17.7133205,12.5087719 18.7000192,13.4844561 18.7000192,14.6842105 C18.7000192,15.8839649 17.7133205,16.8596491 16.5000222,16.8596491 Z M24.2000118,16.8596491 C22.9867135,16.8596491 22.0000148,15.8839649 22.0000148,14.6842105 C22.0000148,13.4844561 22.9867135,12.5087719 24.2000118,12.5087719 C25.4133102,12.5087719 26.4000089,13.4844561 26.4000089,14.6842105 C26.4000089,15.8839649 25.4133102,16.8596491 24.2000118,16.8596491 Z" id="Shape"></path>
                </g>
            </g>
        </g>
    </g>
</svg>