<?xml version="1.0" encoding="UTF-8"?>
<svg width="68px" height="68px" viewBox="0 0 68 68" version="1.1" xmlns="http://www.w3.org/2000/svg" xmlns:xlink="http://www.w3.org/1999/xlink">
    <!-- Generator: Sketch 49.3 (51167) - http://www.bohemiancoding.com/sketch -->
    <title>HowTo@2x</title>
    <desc>Created with Sketch.</desc>
    <defs></defs>
    <g id="Page-1" stroke="none" stroke-width="1" fill="none" fill-rule="evenodd">
        <g id="Tablet" transform="translate(-1174.000000, -2131.000000)">
            <g id="HowTo" transform="translate(1174.000000, 2131.000000)">
                <circle id="Oval" fill="#F59433" cx="34" cy="34" r="34"></circle>
                <path d="M38.1371563,41.3976027 L29.471831,41.3976027 L29.471831,40.5310702 C29.471831,39.0564373 29.6390549,37.8592662 29.9735077,36.9395209 C30.3079605,36.0197756 30.8058317,35.1798556 31.4671362,34.4197355 C32.1284406,33.6596155 33.614453,32.3218243 35.925218,30.4063217 C37.1566125,29.4029632 37.7723005,28.4832318 37.7723005,27.6470997 C37.7723005,26.8109677 37.5252652,26.1610748 37.0311871,25.6974015 C36.5371091,25.2337283 35.7884021,25.0018952 34.7850436,25.0018952 C33.7056731,25.0018952 32.8125455,25.3591462 32.1056338,26.0736591 C31.3987222,26.7881719 30.9464575,28.0347501 30.7488263,29.813431 L21.9010731,28.7188636 C22.2051211,25.4655498 23.3870901,22.8469755 25.4470154,20.8630622 C27.5069408,18.8791488 30.6651922,17.887207 34.9218645,17.887207 C38.235988,17.887207 40.9115704,18.5789059 42.9486922,19.9623244 C45.7155291,21.8322197 47.0989269,24.3253761 47.0989269,27.4418683 C47.0989269,28.7340724 46.7416758,29.9806506 46.027163,31.1816403 C45.3126501,32.38263 43.8532415,33.8496397 41.6488934,35.5827134 C40.1134509,36.7989055 39.1443123,37.7756451 38.7414487,38.5129616 C38.3385851,39.250278 38.1371563,40.2118155 38.1371563,41.3976027 Z M29.1753856,43.700755 L38.4564051,43.700755 L38.4564051,51.887207 L29.1753856,51.887207 L29.1753856,43.700755 Z" id="?" fill="#FFFFFF"></path>
            </g>
        </g>
    </g>
</svg>