<?xml version="1.0" encoding="UTF-8"?>
<svg width="345px" height="470px" viewBox="0 0 345 470" version="1.1" xmlns="http://www.w3.org/2000/svg" xmlns:xlink="http://www.w3.org/1999/xlink">
    <!-- Generator: Sketch 49.3 (51167) - http://www.bohemiancoding.com/sketch -->
    <title>Fill 1@1x</title>
    <desc>Created with Sketch.</desc>
    <defs></defs>
    <g id="Page-1" stroke="none" stroke-width="1" fill="none" fill-rule="evenodd" fill-opacity="0.256595335">
        <g id="Submit-Feedback-Copy-3" transform="translate(-542.000000, -175.000000)" fill="#D8D8D8">
            <g id="Fill-1" transform="translate(192.000000, 175.000000)">
                <path d="M581.279668,92.5678464 C583.02545,90.3686392 584.711181,88.0800334 586.233915,85.6081604 C606.835859,52.3026882 596.018015,7.87602228 595.546182,5.99865034 L594.044896,0 L588.181298,1.0504343 C586.349728,1.38120935 543.052617,9.46731849 522.454961,42.7772606 C518.778953,48.7267417 516.136689,55.0382873 514.22362,61.3900624 C502.565056,39.9209733 487.788104,30.4581247 477.553617,28.4824143 L472.595081,24.8304789 C470.77638,23.4939688 468.24135,23.9454321 466.963111,25.8406838 L463.913354,30.3419065 C462.630826,32.2326882 463.064055,34.8744187 464.882757,36.2109287 L472.063197,41.4943898 C473.272805,42.3839065 474.782671,42.415196 476.052331,41.816225 C482.563626,47.8595746 491.331141,56.7815613 498.850443,70.7277528 C504.937089,82.0098642 507.810981,94.1189132 509.432371,104.614316 C468.052617,89.0187194 433.31284,90.7798731 406.109522,109.915657 C355.468973,145.558904 350,226.737361 350,259.989194 C350,318.415691 392.203317,417.858294 446.614241,458.503397 C464.771232,472.074114 482.615099,470.30402 500.188733,466.790653 C507.442093,465.342394 516.364026,461.770918 522.557907,461.712809 C528.417215,461.788798 534.847012,463.344334 541.671433,465.123368 C549.375179,467.130368 557.627967,470.156512 566.120961,469.271466 C575.729196,468.270201 583.583071,467.112488 592.60366,460.483577 C644.277953,422.507025 695,323.194049 695,259.989194 C695,188.66247 673.535888,131.433915 637.586503,106.907392 C621.334001,95.8174878 602.503574,91.0391292 581.279668,92.5678464 Z"></path>
            </g>
        </g>
    </g>
</svg>